<?xml version="1.0" encoding="UTF-8" standalone="no"?>
<!DOCTYPE svg PUBLIC "-//W3C//DTD SVG 1.1//EN"
 "http://www.w3.org/Graphics/SVG/1.1/DTD/svg11.dtd">
<!-- Generated by graphviz version 14.1.2 (20260124.0452)
 -->
<!-- Title: NexusArt Pages: 1 -->
<svg width="2624pt" height="1074pt"
 viewBox="0.00 0.00 2624.00 1074.00" xmlns="http://www.w3.org/2000/svg" xmlns:xlink="http://www.w3.org/1999/xlink">
<g id="graph0" class="graph" transform="scale(1 1) rotate(0) translate(36 1037.5)">
<title>NexusArt</title>
<polygon fill="white" stroke="none" points="-36,36 -36,-1037.5 2588,-1037.5 2588,36 -36,36"/>
<text xml:space="preserve" text-anchor="middle" x="1276" y="-978.5" font-family="Arial Bold" font-size="20.00">NexusArt &#45; Collaborative Creative Ecosystem</text>
<text xml:space="preserve" text-anchor="middle" x="1276" y="-955.25" font-family="Arial Bold" font-size="20.00">Serverless AWS Architecture</text>
<g id="clust1" class="cluster">
<title>cluster_client</title>
<polygon fill="#e3f2fd" stroke="lightblue" points="805,-824.5 805,-939 1049,-939 1049,-824.5 805,-824.5"/>
<text xml:space="preserve" text-anchor="middle" x="927" y="-916" font-family="Arial Bold" font-size="20.00">Client Layer</text>
</g>
<g id="clust2" class="cluster">
<title>cluster_api</title>
<polygon fill="#fff3e0" stroke="orange" points="808,-476.5 808,-765 1004,-765 1004,-476.5 808,-476.5"/>
<text xml:space="preserve" text-anchor="middle" x="906" y="-742" font-family="Arial Bold" font-size="20.00">API Gateway Layer</text>
</g>
<g id="clust3" class="cluster">
<title>cluster_compute</title>
<polygon fill="#e8f5e9" stroke="green" points="1012,-476.5 1012,-591 2004,-591 2004,-476.5 1012,-476.5"/>
<text xml:space="preserve" text-anchor="middle" x="1508" y="-568" font-family="Arial Bold" font-size="20.00">Compute Layer (Serverless)</text>
</g>
<g id="clust4" class="cluster">
<title>cluster_module_a</title>
<polygon fill="#ffebee" stroke="#ff6b6b" points="8,-286 8,-400.5 582,-400.5 582,-286 8,-286"/>
<text xml:space="preserve" text-anchor="middle" x="295" y="-377.5" font-family="Arial Bold" font-size="20.00">Module A: Semantic Matchmaking Engine</text>
</g>
<g id="clust5" class="cluster">
<title>cluster_module_b</title>
<polygon fill="#f3e5f5" stroke="#9c27b0" points="624,-286 624,-400.5 1187,-400.5 1187,-286 624,-286"/>
<text xml:space="preserve" text-anchor="middle" x="905.5" y="-377.5" font-family="Arial Bold" font-size="20.00">Module B: Living Workspace (Version Control)</text>
</g>
<g id="clust6" class="cluster">
<title>cluster_module_c</title>
<polygon fill="#e3f2fd" stroke="#2196f3" points="1195,-286 1195,-400.5 1743,-400.5 1743,-286 1195,-286"/>
<text xml:space="preserve" text-anchor="middle" x="1469" y="-377.5" font-family="Arial Bold" font-size="20.00">Module C: AI Creative Assistant &amp; Predictive Intelligence</text>
</g>
<g id="clust7" class="cluster">
<title>cluster_module_d</title>
<polygon fill="#fbe9e7" stroke="#ff5722" points="2108,-8 2108,-400.5 2544,-400.5 2544,-8 2108,-8"/>
<text xml:space="preserve" text-anchor="middle" x="2326" y="-377.5" font-family="Arial Bold" font-size="20.00">Module D: Intelligent Distribution</text>
</g>
<g id="clust8" class="cluster">
<title>cluster_monitoring</title>
<polygon fill="#eceff1" stroke="#607d8b" points="1751,-286 1751,-400.5 2061,-400.5 2061,-286 1751,-286"/>
<text xml:space="preserve" text-anchor="middle" x="1906" y="-377.5" font-family="Arial Bold" font-size="20.00">Monitoring &amp; Event Bus</text>
</g>
<!-- web -->
<g id="node1" class="node">
<title>web</title>
<path fill="#4fc3f7" stroke="black" d="M892.88,-868.5C892.88,-868.5 825.12,-868.5 825.12,-868.5 819.12,-868.5 813.12,-862.5 813.12,-856.5 813.12,-856.5 813.12,-844.5 813.12,-844.5 813.12,-838.5 819.12,-832.5 825.12,-832.5 825.12,-832.5 892.88,-832.5 892.88,-832.5 898.88,-832.5 904.88,-838.5 904.88,-844.5 904.88,-844.5 904.88,-856.5 904.88,-856.5 904.88,-862.5 898.88,-868.5 892.88,-868.5"/>
<text xml:space="preserve" text-anchor="middle" x="859" y="-846.8" font-family="Arial" font-size="11.00" fill="white">React Web App</text>
</g>
<!-- apigw -->
<g id="node3" class="node">
<title>apigw</title>
<path fill="#ff9800" stroke="black" d="M983.88,-694.5C983.88,-694.5 886.12,-694.5 886.12,-694.5 880.12,-694.5 874.12,-688.5 874.12,-682.5 874.12,-682.5 874.12,-670.5 874.12,-670.5 874.12,-664.5 880.12,-658.5 886.12,-658.5 886.12,-658.5 983.88,-658.5 983.88,-658.5 989.88,-658.5 995.88,-664.5 995.88,-670.5 995.88,-670.5 995.88,-682.5 995.88,-682.5 995.88,-688.5 989.88,-694.5 983.88,-694.5"/>
<text xml:space="preserve" text-anchor="middle" x="935" y="-679.55" font-family="Arial" font-size="11.00" fill="white">Amazon API Gateway</text>
<text xml:space="preserve" text-anchor="middle" x="935" y="-666.05" font-family="Arial" font-size="11.00" fill="white">REST + WebSocket</text>
</g>
<!-- web&#45;&gt;apigw -->
<g id="edge1" class="edge">
<title>web&#45;&gt;apigw</title>
<path fill="none" stroke="#1976d2" stroke-width="2" d="M889.5,-832.21C889.5,-832.21 889.5,-707.84 889.5,-707.84"/>
<polygon fill="#1976d2" stroke="#1976d2" stroke-width="2" points="893,-707.84 889.5,-697.84 886,-707.84 893,-707.84"/>
<text xml:space="preserve" text-anchor="middle" x="898.62" y="-776.2" font-family="Times New Roman,serif" font-size="14.00">HTTPS</text>
</g>
<!-- mobile -->
<g id="node2" class="node">
<title>mobile</title>
<path fill="#4fc3f7" stroke="black" d="M1029.12,-868.5C1029.12,-868.5 974.88,-868.5 974.88,-868.5 968.88,-868.5 962.88,-862.5 962.88,-856.5 962.88,-856.5 962.88,-844.5 962.88,-844.5 962.88,-838.5 968.88,-832.5 974.88,-832.5 974.88,-832.5 1029.12,-832.5 1029.12,-832.5 1035.12,-832.5 1041.12,-838.5 1041.12,-844.5 1041.12,-844.5 1041.12,-856.5 1041.12,-856.5 1041.12,-862.5 1035.12,-868.5 1029.12,-868.5"/>
<text xml:space="preserve" text-anchor="middle" x="1002" y="-853.55" font-family="Arial" font-size="11.00" fill="white">React Native</text>
<text xml:space="preserve" text-anchor="middle" x="1002" y="-840.05" font-family="Arial" font-size="11.00" fill="white">Mobile App</text>
</g>
<!-- mobile&#45;&gt;apigw -->
<g id="edge2" class="edge">
<title>mobile&#45;&gt;apigw</title>
<path fill="none" stroke="#1976d2" stroke-width="2" d="M979.38,-832.21C979.38,-832.21 979.38,-707.84 979.38,-707.84"/>
<polygon fill="#1976d2" stroke="#1976d2" stroke-width="2" points="982.88,-707.84 979.38,-697.84 975.88,-707.84 982.88,-707.84"/>
<text xml:space="preserve" text-anchor="middle" x="1012.62" y="-776.2" font-family="Times New Roman,serif" font-size="14.00">HTTPS</text>
</g>
<!-- cognito -->
<g id="node4" class="node">
<title>cognito</title>
<path fill="#ff9800" stroke="black" d="M950.12,-520.5C950.12,-520.5 877.88,-520.5 877.88,-520.5 871.88,-520.5 865.88,-514.5 865.88,-508.5 865.88,-508.5 865.88,-496.5 865.88,-496.5 865.88,-490.5 871.88,-484.5 877.88,-484.5 877.88,-484.5 950.12,-484.5 950.12,-484.5 956.12,-484.5 962.12,-490.5 962.12,-496.5 962.12,-496.5 962.12,-508.5 962.12,-508.5 962.12,-514.5 956.12,-520.5 950.12,-520.5"/>
<text xml:space="preserve" text-anchor="middle" x="914" y="-505.55" font-family="Arial" font-size="11.00" fill="white">Amazon Cognito</text>
<text xml:space="preserve" text-anchor="middle" x="914" y="-492.05" font-family="Arial" font-size="11.00" fill="white">Authentication</text>
</g>
<!-- apigw&#45;&gt;cognito -->
<g id="edge3" class="edge">
<title>apigw&#45;&gt;cognito</title>
<path fill="none" stroke="#ff6f00" stroke-width="2" d="M918.12,-658.21C918.12,-658.21 918.12,-533.84 918.12,-533.84"/>
<polygon fill="#ff6f00" stroke="#ff6f00" stroke-width="2" points="921.63,-533.84 918.13,-523.84 914.63,-533.84 921.63,-533.84"/>
<text xml:space="preserve" text-anchor="middle" x="938.5" y="-602.2" font-family="Times New Roman,serif" font-size="14.00">Auth</text>
</g>
<!-- lambda_embed -->
<g id="node5" class="node">
<title>lambda_embed</title>
<path fill="#66bb6a" stroke="black" d="M1287.75,-520.5C1287.75,-520.5 1192.25,-520.5 1192.25,-520.5 1186.25,-520.5 1180.25,-514.5 1180.25,-508.5 1180.25,-508.5 1180.25,-496.5 1180.25,-496.5 1180.25,-490.5 1186.25,-484.5 1192.25,-484.5 1192.25,-484.5 1287.75,-484.5 1287.75,-484.5 1293.75,-484.5 1299.75,-490.5 1299.75,-496.5 1299.75,-496.5 1299.75,-508.5 1299.75,-508.5 1299.75,-514.5 1293.75,-520.5 1287.75,-520.5"/>
<text xml:space="preserve" text-anchor="middle" x="1240" y="-505.55" font-family="Arial" font-size="11.00" fill="white">Lambda:</text>
<text xml:space="preserve" text-anchor="middle" x="1240" y="-492.05" font-family="Arial" font-size="11.00" fill="white">embedding&#45;generator</text>
</g>
<!-- apigw&#45;&gt;lambda_embed -->
<g id="edge4" class="edge">
<title>apigw&#45;&gt;lambda_embed</title>
<path fill="none" stroke="#4caf50" d="M996.35,-668C1085.42,-668 1240,-668 1240,-668 1240,-668 1240,-532.36 1240,-532.36"/>
<polygon fill="#4caf50" stroke="#4caf50" points="1243.5,-532.36 1240,-522.36 1236.5,-532.36 1243.5,-532.36"/>
</g>
<!-- lambda_match -->
<g id="node6" class="node">
<title>lambda_match</title>
<path fill="#66bb6a" stroke="black" d="M1109.75,-520.5C1109.75,-520.5 1032.25,-520.5 1032.25,-520.5 1026.25,-520.5 1020.25,-514.5 1020.25,-508.5 1020.25,-508.5 1020.25,-496.5 1020.25,-496.5 1020.25,-490.5 1026.25,-484.5 1032.25,-484.5 1032.25,-484.5 1109.75,-484.5 1109.75,-484.5 1115.75,-484.5 1121.75,-490.5 1121.75,-496.5 1121.75,-496.5 1121.75,-508.5 1121.75,-508.5 1121.75,-514.5 1115.75,-520.5 1109.75,-520.5"/>
<text xml:space="preserve" text-anchor="middle" x="1071" y="-505.55" font-family="Arial" font-size="11.00" fill="white">Lambda:</text>
<text xml:space="preserve" text-anchor="middle" x="1071" y="-492.05" font-family="Arial" font-size="11.00" fill="white">semantic&#45;matcher</text>
</g>
<!-- apigw&#45;&gt;lambda_match -->
<g id="edge5" class="edge">
<title>apigw&#45;&gt;lambda_match</title>
<path fill="none" stroke="#4caf50" d="M996.14,-663C1014.9,-663 1030.69,-663 1030.69,-663 1030.69,-663 1030.69,-532.42 1030.69,-532.42"/>
<polygon fill="#4caf50" stroke="#4caf50" points="1034.19,-532.42 1030.69,-522.42 1027.19,-532.42 1034.19,-532.42"/>
</g>
<!-- lambda_meta -->
<g id="node7" class="node">
<title>lambda_meta</title>
<path fill="#66bb6a" stroke="black" d="M1458,-520.5C1458,-520.5 1370,-520.5 1370,-520.5 1364,-520.5 1358,-514.5 1358,-508.5 1358,-508.5 1358,-496.5 1358,-496.5 1358,-490.5 1364,-484.5 1370,-484.5 1370,-484.5 1458,-484.5 1458,-484.5 1464,-484.5 1470,-490.5 1470,-496.5 1470,-496.5 1470,-508.5 1470,-508.5 1470,-514.5 1464,-520.5 1458,-520.5"/>
<text xml:space="preserve" text-anchor="middle" x="1414" y="-505.55" font-family="Arial" font-size="11.00" fill="white">Lambda:</text>
<text xml:space="preserve" text-anchor="middle" x="1414" y="-492.05" font-family="Arial" font-size="11.00" fill="white">metadata&#45;processor</text>
</g>
<!-- apigw&#45;&gt;lambda_meta -->
<g id="edge9" class="edge">
<title>apigw&#45;&gt;lambda_meta</title>
<path fill="none" stroke="#4caf50" d="M996.15,-672C1125.28,-672 1414,-672 1414,-672 1414,-672 1414,-532.48 1414,-532.48"/>
<polygon fill="#4caf50" stroke="#4caf50" points="1417.5,-532.48 1414,-522.48 1410.5,-532.48 1417.5,-532.48"/>
</g>
<!-- lambda_creative -->
<g id="node8" class="node">
<title>lambda_creative</title>
<path fill="#66bb6a" stroke="black" d="M1615.62,-520.5C1615.62,-520.5 1540.38,-520.5 1540.38,-520.5 1534.38,-520.5 1528.38,-514.5 1528.38,-508.5 1528.38,-508.5 1528.38,-496.5 1528.38,-496.5 1528.38,-490.5 1534.38,-484.5 1540.38,-484.5 1540.38,-484.5 1615.62,-484.5 1615.62,-484.5 1621.62,-484.5 1627.62,-490.5 1627.62,-496.5 1627.62,-496.5 1627.62,-508.5 1627.62,-508.5 1627.62,-514.5 1621.62,-520.5 1615.62,-520.5"/>
<text xml:space="preserve" text-anchor="middle" x="1578" y="-505.55" font-family="Arial" font-size="11.00" fill="white">Lambda:</text>
<text xml:space="preserve" text-anchor="middle" x="1578" y="-492.05" font-family="Arial" font-size="11.00" fill="white">creative&#45;assistant</text>
</g>
<!-- apigw&#45;&gt;lambda_creative -->
<g id="edge6" class="edge">
<title>apigw&#45;&gt;lambda_creative</title>
<path fill="none" stroke="#4caf50" d="M996.36,-677C1157.08,-677 1578,-677 1578,-677 1578,-677 1578,-532.36 1578,-532.36"/>
<polygon fill="#4caf50" stroke="#4caf50" points="1581.5,-532.36 1578,-522.36 1574.5,-532.36 1581.5,-532.36"/>
</g>
<!-- lambda_predict -->
<g id="node9" class="node">
<title>lambda_predict</title>
<path fill="#66bb6a" stroke="black" d="M1795.88,-520.5C1795.88,-520.5 1698.12,-520.5 1698.12,-520.5 1692.12,-520.5 1686.12,-514.5 1686.12,-508.5 1686.12,-508.5 1686.12,-496.5 1686.12,-496.5 1686.12,-490.5 1692.12,-484.5 1698.12,-484.5 1698.12,-484.5 1795.88,-484.5 1795.88,-484.5 1801.88,-484.5 1807.88,-490.5 1807.88,-496.5 1807.88,-496.5 1807.88,-508.5 1807.88,-508.5 1807.88,-514.5 1801.88,-520.5 1795.88,-520.5"/>
<text xml:space="preserve" text-anchor="middle" x="1747" y="-505.55" font-family="Arial" font-size="11.00" fill="white">Lambda:</text>
<text xml:space="preserve" text-anchor="middle" x="1747" y="-492.05" font-family="Arial" font-size="11.00" fill="white">engagement&#45;predictor</text>
</g>
<!-- apigw&#45;&gt;lambda_predict -->
<g id="edge7" class="edge">
<title>apigw&#45;&gt;lambda_predict</title>
<path fill="none" stroke="#4caf50" d="M996.36,-681C1185.53,-681 1747,-681 1747,-681 1747,-681 1747,-532.44 1747,-532.44"/>
<polygon fill="#4caf50" stroke="#4caf50" points="1750.5,-532.44 1747,-522.44 1743.5,-532.44 1750.5,-532.44"/>
</g>
<!-- lambda_dist -->
<g id="node10" class="node">
<title>lambda_dist</title>
<path fill="#66bb6a" stroke="black" d="M1983.62,-520.5C1983.62,-520.5 1878.38,-520.5 1878.38,-520.5 1872.38,-520.5 1866.38,-514.5 1866.38,-508.5 1866.38,-508.5 1866.38,-496.5 1866.38,-496.5 1866.38,-490.5 1872.38,-484.5 1878.38,-484.5 1878.38,-484.5 1983.62,-484.5 1983.62,-484.5 1989.62,-484.5 1995.62,-490.5 1995.62,-496.5 1995.62,-496.5 1995.62,-508.5 1995.62,-508.5 1995.62,-514.5 1989.62,-520.5 1983.62,-520.5"/>
<text xml:space="preserve" text-anchor="middle" x="1931" y="-505.55" font-family="Arial" font-size="11.00" fill="white">Lambda:</text>
<text xml:space="preserve" text-anchor="middle" x="1931" y="-492.05" font-family="Arial" font-size="11.00" fill="white">distribution&#45;orchestrator</text>
</g>
<!-- apigw&#45;&gt;lambda_dist -->
<g id="edge8" class="edge">
<title>apigw&#45;&gt;lambda_dist</title>
<path fill="none" stroke="#4caf50" d="M996.18,-686C1212.88,-686 1931,-686 1931,-686 1931,-686 1931,-532.28 1931,-532.28"/>
<polygon fill="#4caf50" stroke="#4caf50" points="1934.5,-532.28 1931,-522.28 1927.5,-532.28 1934.5,-532.28"/>
</g>
<!-- cloudwatch -->
<g id="node27" class="node">
<title>cloudwatch</title>
<path fill="#607d8b" stroke="black" d="M2040.62,-330C2040.62,-330 1947.38,-330 1947.38,-330 1941.38,-330 1935.38,-324 1935.38,-318 1935.38,-318 1935.38,-306 1935.38,-306 1935.38,-300 1941.38,-294 1947.38,-294 1947.38,-294 2040.62,-294 2040.62,-294 2046.62,-294 2052.62,-300 2052.62,-306 2052.62,-306 2052.62,-318 2052.62,-318 2052.62,-324 2046.62,-330 2040.62,-330"/>
<text xml:space="preserve" text-anchor="middle" x="1994" y="-315.05" font-family="Arial" font-size="11.00" fill="white">Amazon CloudWatch</text>
<text xml:space="preserve" text-anchor="middle" x="1994" y="-301.55" font-family="Arial" font-size="11.00" fill="white">Logs &amp; Metrics</text>
</g>
<!-- apigw&#45;&gt;cloudwatch -->
<g id="edge39" class="edge">
<title>apigw&#45;&gt;cloudwatch</title>
<path fill="none" stroke="#607d8b" stroke-dasharray="1,5" d="M996.28,-690C1226.16,-690 2024.12,-690 2024.12,-690 2024.12,-690 2024.12,-342 2024.12,-342"/>
<polygon fill="#607d8b" stroke="#607d8b" points="2027.63,-342 2024.13,-332 2020.63,-342 2027.63,-342"/>
</g>
<!-- bedrock_titan -->
<g id="node11" class="node">
<title>bedrock_titan</title>
<path fill="#e91e63" stroke="black" d="M562.12,-330C562.12,-330 483.88,-330 483.88,-330 477.88,-330 471.88,-324 471.88,-318 471.88,-318 471.88,-306 471.88,-306 471.88,-300 477.88,-294 483.88,-294 483.88,-294 562.12,-294 562.12,-294 568.12,-294 574.12,-300 574.12,-306 574.12,-306 574.12,-318 574.12,-318 574.12,-324 568.12,-330 562.12,-330"/>
<text xml:space="preserve" text-anchor="middle" x="523" y="-315.05" font-family="Arial" font-size="11.00" fill="white">Amazon Bedrock</text>
<text xml:space="preserve" text-anchor="middle" x="523" y="-301.55" font-family="Arial" font-size="11.00" fill="white">Titan Embeddings</text>
</g>
<!-- lambda_embed&#45;&gt;bedrock_titan -->
<g id="edge10" class="edge">
<title>lambda_embed&#45;&gt;bedrock_titan</title>
<path fill="none" stroke="#e91e63" d="M1222.91,-484.33C1222.91,-464.64 1222.91,-436 1222.91,-436 1222.91,-436 523,-436 523,-436 523,-436 523,-341.81 523,-341.81"/>
<polygon fill="#e91e63" stroke="#e91e63" points="526.5,-341.81 523,-331.81 519.5,-341.81 526.5,-341.81"/>
<text xml:space="preserve" text-anchor="middle" x="644.12" y="-428.2" font-family="Times New Roman,serif" font-size="14.00">Generate</text>
<text xml:space="preserve" text-anchor="middle" x="644.12" y="-411.7" font-family="Times New Roman,serif" font-size="14.00">Embeddings</text>
</g>
<!-- ddb_embeddings -->
<g id="node13" class="node">
<title>ddb_embeddings</title>
<path fill="#e91e63" stroke="black" d="M244.38,-330C244.38,-330 161.62,-330 161.62,-330 155.62,-330 149.62,-324 149.62,-318 149.62,-318 149.62,-306 149.62,-306 149.62,-300 155.62,-294 161.62,-294 161.62,-294 244.38,-294 244.38,-294 250.38,-294 256.38,-300 256.38,-306 256.38,-306 256.38,-318 256.38,-318 256.38,-324 250.38,-330 244.38,-330"/>
<text xml:space="preserve" text-anchor="middle" x="203" y="-315.05" font-family="Arial" font-size="11.00" fill="white">DynamoDB:</text>
<text xml:space="preserve" text-anchor="middle" x="203" y="-301.55" font-family="Arial" font-size="11.00" fill="white">VectorEmbeddings</text>
</g>
<!-- lambda_embed&#45;&gt;ddb_embeddings -->
<g id="edge11" class="edge">
<title>lambda_embed&#45;&gt;ddb_embeddings</title>
<path fill="none" stroke="#e91e63" d="M1194.47,-484.23C1194.47,-472.71 1194.47,-460 1194.47,-460 1194.47,-460 220.79,-460 220.79,-460 220.79,-460 220.79,-341.96 220.79,-341.96"/>
<polygon fill="#e91e63" stroke="#e91e63" points="224.29,-341.96 220.79,-331.96 217.29,-341.96 224.29,-341.96"/>
<text xml:space="preserve" text-anchor="middle" x="268.25" y="-419.95" font-family="Times New Roman,serif" font-size="14.00">Store</text>
</g>
<!-- neptune -->
<g id="node14" class="node">
<title>neptune</title>
<path fill="#e91e63" stroke="black" d="M402,-330C402,-330 326,-330 326,-330 320,-330 314,-324 314,-318 314,-318 314,-306 314,-306 314,-300 320,-294 326,-294 326,-294 402,-294 402,-294 408,-294 414,-300 414,-306 414,-306 414,-318 414,-318 414,-324 408,-330 402,-330"/>
<text xml:space="preserve" text-anchor="middle" x="364" y="-315.05" font-family="Arial" font-size="11.00" fill="white">Amazon Neptune</text>
<text xml:space="preserve" text-anchor="middle" x="364" y="-301.55" font-family="Arial" font-size="11.00" fill="white">Graph Database</text>
</g>
<!-- lambda_embed&#45;&gt;neptune -->
<g id="edge12" class="edge">
<title>lambda_embed&#45;&gt;neptune</title>
<path fill="none" stroke="#e91e63" d="M1208.69,-484.31C1208.69,-467.14 1208.69,-444 1208.69,-444 1208.69,-444 380.67,-444 380.67,-444 380.67,-444 380.67,-341.87 380.67,-341.87"/>
<polygon fill="#e91e63" stroke="#e91e63" points="384.17,-341.87 380.67,-331.87 377.17,-341.87 384.17,-341.87"/>
<text xml:space="preserve" text-anchor="middle" x="462.5" y="-428.2" font-family="Times New Roman,serif" font-size="14.00">Update</text>
<text xml:space="preserve" text-anchor="middle" x="462.5" y="-411.7" font-family="Times New Roman,serif" font-size="14.00">Graph</text>
</g>
<!-- lambda_embed&#45;&gt;cloudwatch -->
<g id="edge33" class="edge">
<title>lambda_embed&#45;&gt;cloudwatch</title>
<path fill="none" stroke="#607d8b" stroke-dasharray="1,5" d="M1258,-484.22C1258,-448.08 1258,-371 1258,-371 1258,-371 1952.59,-371 1952.59,-371 1952.59,-371 1952.59,-341.86 1952.59,-341.86"/>
<polygon fill="#607d8b" stroke="#607d8b" points="1956.09,-341.86 1952.59,-331.86 1949.09,-341.86 1956.09,-341.86"/>
</g>
<!-- ddb_profiles -->
<g id="node12" class="node">
<title>ddb_profiles</title>
<path fill="#e91e63" stroke="black" d="M79.62,-330C79.62,-330 28.37,-330 28.37,-330 22.38,-330 16.38,-324 16.38,-318 16.38,-318 16.38,-306 16.38,-306 16.38,-300 22.38,-294 28.38,-294 28.38,-294 79.62,-294 79.62,-294 85.62,-294 91.62,-300 91.62,-306 91.62,-306 91.62,-318 91.62,-318 91.62,-324 85.62,-330 79.62,-330"/>
<text xml:space="preserve" text-anchor="middle" x="54" y="-315.05" font-family="Arial" font-size="11.00" fill="white">DynamoDB:</text>
<text xml:space="preserve" text-anchor="middle" x="54" y="-301.55" font-family="Arial" font-size="11.00" fill="white">UserProfiles</text>
</g>
<!-- lambda_match&#45;&gt;ddb_profiles -->
<g id="edge13" class="edge">
<title>lambda_match&#45;&gt;ddb_profiles</title>
<path fill="none" stroke="#e91e63" d="M1024.5,-484.09C1024.5,-479.57 1024.5,-476 1024.5,-476 1024.5,-476 54,-476 54,-476 54,-476 54,-342.01 54,-342.01"/>
<polygon fill="#e91e63" stroke="#e91e63" points="57.5,-342.01 54,-332.01 50.5,-342.01 57.5,-342.01"/>
<text xml:space="preserve" text-anchor="middle" x="72.88" y="-419.95" font-family="Times New Roman,serif" font-size="14.00">Query</text>
</g>
<!-- lambda_match&#45;&gt;ddb_embeddings -->
<g id="edge14" class="edge">
<title>lambda_match&#45;&gt;ddb_embeddings</title>
<path fill="none" stroke="#e91e63" d="M1028.75,-484.04C1028.75,-475.84 1028.75,-468 1028.75,-468 1028.75,-468 185.21,-468 185.21,-468 185.21,-468 185.21,-341.71 185.21,-341.71"/>
<polygon fill="#e91e63" stroke="#e91e63" points="188.71,-341.71 185.21,-331.71 181.71,-341.71 188.71,-341.71"/>
<text xml:space="preserve" text-anchor="middle" x="172.38" y="-419.95" font-family="Times New Roman,serif" font-size="14.00">Search</text>
</g>
<!-- lambda_match&#45;&gt;neptune -->
<g id="edge15" class="edge">
<title>lambda_match&#45;&gt;neptune</title>
<path fill="none" stroke="#e91e63" d="M1033,-484.27C1033,-469.8 1033,-452 1033,-452 1033,-452 347.33,-452 347.33,-452 347.33,-452 347.33,-341.82 347.33,-341.82"/>
<polygon fill="#e91e63" stroke="#e91e63" points="350.83,-341.82 347.33,-331.82 343.83,-341.82 350.83,-341.82"/>
<text xml:space="preserve" text-anchor="middle" x="362.88" y="-428.2" font-family="Times New Roman,serif" font-size="14.00">Graph</text>
<text xml:space="preserve" text-anchor="middle" x="362.88" y="-411.7" font-family="Times New Roman,serif" font-size="14.00">Query</text>
</g>
<!-- lambda_match&#45;&gt;cloudwatch -->
<g id="edge34" class="edge">
<title>lambda_match&#45;&gt;cloudwatch</title>
<path fill="none" stroke="#607d8b" stroke-dasharray="1,5" d="M1112.56,-484.26C1112.56,-446.45 1112.56,-363 1112.56,-363 1112.56,-363 1943.98,-363 1943.98,-363 1943.98,-363 1943.98,-341.93 1943.98,-341.93"/>
<polygon fill="#607d8b" stroke="#607d8b" points="1947.48,-341.93 1943.98,-331.93 1940.48,-341.93 1947.48,-341.93"/>
</g>
<!-- s3_projects -->
<g id="node15" class="node">
<title>s3_projects</title>
<path fill="#9c27b0" stroke="black" d="M1033.75,-330C1033.75,-330 944.25,-330 944.25,-330 938.25,-330 932.25,-324 932.25,-318 932.25,-318 932.25,-306 932.25,-306 932.25,-300 938.25,-294 944.25,-294 944.25,-294 1033.75,-294 1033.75,-294 1039.75,-294 1045.75,-300 1045.75,-306 1045.75,-306 1045.75,-318 1045.75,-318 1045.75,-324 1039.75,-330 1033.75,-330"/>
<text xml:space="preserve" text-anchor="middle" x="989" y="-315.05" font-family="Arial" font-size="11.00" fill="white">Amazon S3</text>
<text xml:space="preserve" text-anchor="middle" x="989" y="-301.55" font-family="Arial" font-size="11.00" fill="white">Projects (Versioned)</text>
</g>
<!-- lambda_meta&#45;&gt;s3_projects -->
<g id="edge16" class="edge">
<title>lambda_meta&#45;&gt;s3_projects</title>
<path fill="none" stroke="#9c27b0" d="M1395.65,-484.42C1395.65,-457.76 1395.65,-411 1395.65,-411 1395.65,-411 1041.5,-411 1041.5,-411 1041.5,-411 1041.5,-341.67 1041.5,-341.67"/>
<polygon fill="#9c27b0" stroke="#9c27b0" points="1045,-341.67 1041.5,-331.67 1038,-341.67 1045,-341.67"/>
<text xml:space="preserve" text-anchor="middle" x="1005.62" y="-428.2" font-family="Times New Roman,serif" font-size="14.00">Store</text>
<text xml:space="preserve" text-anchor="middle" x="1005.62" y="-411.7" font-family="Times New Roman,serif" font-size="14.00">Assets</text>
</g>
<!-- ddb_projects -->
<g id="node16" class="node">
<title>ddb_projects</title>
<path fill="#9c27b0" stroke="black" d="M1166.62,-330C1166.62,-330 1115.38,-330 1115.38,-330 1109.38,-330 1103.38,-324 1103.38,-318 1103.38,-318 1103.38,-306 1103.38,-306 1103.38,-300 1109.38,-294 1115.38,-294 1115.38,-294 1166.62,-294 1166.62,-294 1172.62,-294 1178.62,-300 1178.62,-306 1178.62,-306 1178.62,-318 1178.62,-318 1178.62,-324 1172.62,-330 1166.62,-330"/>
<text xml:space="preserve" text-anchor="middle" x="1141" y="-315.05" font-family="Arial" font-size="11.00" fill="white">DynamoDB:</text>
<text xml:space="preserve" text-anchor="middle" x="1141" y="-301.55" font-family="Arial" font-size="11.00" fill="white">Projects</text>
</g>
<!-- lambda_meta&#45;&gt;ddb_projects -->
<g id="edge17" class="edge">
<title>lambda_meta&#45;&gt;ddb_projects</title>
<path fill="none" stroke="#9c27b0" d="M1408.2,-484.25C1408.2,-455.53 1408.2,-403 1408.2,-403 1408.2,-403 1150.19,-403 1150.19,-403 1150.19,-403 1150.19,-341.93 1150.19,-341.93"/>
<polygon fill="#9c27b0" stroke="#9c27b0" points="1153.69,-341.93 1150.19,-331.93 1146.69,-341.93 1153.69,-341.93"/>
<text xml:space="preserve" text-anchor="middle" x="1105.5" y="-419.95" font-family="Times New Roman,serif" font-size="14.00">Update</text>
</g>
<!-- ddb_assets -->
<g id="node17" class="node">
<title>ddb_assets</title>
<path fill="#9c27b0" stroke="black" d="M695.62,-330C695.62,-330 644.38,-330 644.38,-330 638.38,-330 632.38,-324 632.38,-318 632.38,-318 632.38,-306 632.38,-306 632.38,-300 638.38,-294 644.38,-294 644.38,-294 695.62,-294 695.62,-294 701.62,-294 707.62,-300 707.62,-306 707.62,-306 707.62,-318 707.62,-318 707.62,-324 701.62,-330 695.62,-330"/>
<text xml:space="preserve" text-anchor="middle" x="670" y="-315.05" font-family="Arial" font-size="11.00" fill="white">DynamoDB:</text>
<text xml:space="preserve" text-anchor="middle" x="670" y="-301.55" font-family="Arial" font-size="11.00" fill="white">Assets</text>
</g>
<!-- lambda_meta&#45;&gt;ddb_assets -->
<g id="edge18" class="edge">
<title>lambda_meta&#45;&gt;ddb_assets</title>
<path fill="none" stroke="#9c27b0" d="M1370.55,-484.08C1370.55,-462.02 1370.55,-428 1370.55,-428 1370.55,-428 670,-428 670,-428 670,-428 670,-341.89 670,-341.89"/>
<polygon fill="#9c27b0" stroke="#9c27b0" points="673.5,-341.89 670,-331.89 666.5,-341.89 673.5,-341.89"/>
<text xml:space="preserve" text-anchor="middle" x="764.25" y="-428.2" font-family="Times New Roman,serif" font-size="14.00">Track</text>
<text xml:space="preserve" text-anchor="middle" x="764.25" y="-411.7" font-family="Times New Roman,serif" font-size="14.00">Versions</text>
</g>
<!-- ddb_ledger -->
<g id="node18" class="node">
<title>ddb_ledger</title>
<path fill="#9c27b0" stroke="black" d="M862.12,-330C862.12,-330 777.88,-330 777.88,-330 771.88,-330 765.88,-324 765.88,-318 765.88,-318 765.88,-306 765.88,-306 765.88,-300 771.88,-294 777.88,-294 777.88,-294 862.12,-294 862.12,-294 868.12,-294 874.12,-300 874.12,-306 874.12,-306 874.12,-318 874.12,-318 874.12,-324 868.12,-330 862.12,-330"/>
<text xml:space="preserve" text-anchor="middle" x="820" y="-315.05" font-family="Arial" font-size="11.00" fill="white">DynamoDB:</text>
<text xml:space="preserve" text-anchor="middle" x="820" y="-301.55" font-family="Arial" font-size="11.00" fill="white">ContributionLedger</text>
</g>
<!-- lambda_meta&#45;&gt;ddb_ledger -->
<g id="edge19" class="edge">
<title>lambda_meta&#45;&gt;ddb_ledger</title>
<path fill="none" stroke="#9c27b0" d="M1383.1,-484.38C1383.1,-459.82 1383.1,-419 1383.1,-419 1383.1,-419 870,-419 870,-419 870,-419 870,-341.66 870,-341.66"/>
<polygon fill="#9c27b0" stroke="#9c27b0" points="873.5,-341.66 870,-331.66 866.5,-341.66 873.5,-341.66"/>
<text xml:space="preserve" text-anchor="middle" x="888.12" y="-428.2" font-family="Times New Roman,serif" font-size="14.00">Record</text>
<text xml:space="preserve" text-anchor="middle" x="888.12" y="-411.7" font-family="Times New Roman,serif" font-size="14.00">Contributions</text>
</g>
<!-- rekognition -->
<g id="node21" class="node">
<title>rekognition</title>
<path fill="#2196f3" stroke="black" d="M1340.88,-330C1340.88,-330 1249.12,-330 1249.12,-330 1243.12,-330 1237.12,-324 1237.12,-318 1237.12,-318 1237.12,-306 1237.12,-306 1237.12,-300 1243.12,-294 1249.12,-294 1249.12,-294 1340.88,-294 1340.88,-294 1346.88,-294 1352.88,-300 1352.88,-306 1352.88,-306 1352.88,-318 1352.88,-318 1352.88,-324 1346.88,-330 1340.88,-330"/>
<text xml:space="preserve" text-anchor="middle" x="1295" y="-315.05" font-family="Arial" font-size="11.00" fill="white">Amazon Rekognition</text>
<text xml:space="preserve" text-anchor="middle" x="1295" y="-301.55" font-family="Arial" font-size="11.00" fill="white">Content Moderation</text>
</g>
<!-- lambda_meta&#45;&gt;rekognition -->
<g id="edge23" class="edge">
<title>lambda_meta&#45;&gt;rekognition</title>
<path fill="none" stroke="#2196f3" d="M1357.97,-503C1340.78,-503 1326.31,-503 1326.31,-503 1326.31,-503 1326.31,-341.83 1326.31,-341.83"/>
<polygon fill="#2196f3" stroke="#2196f3" points="1329.81,-341.83 1326.31,-331.83 1322.81,-341.83 1329.81,-341.83"/>
<text xml:space="preserve" text-anchor="middle" x="1274.88" y="-428.2" font-family="Times New Roman,serif" font-size="14.00">Content</text>
<text xml:space="preserve" text-anchor="middle" x="1274.88" y="-411.7" font-family="Times New Roman,serif" font-size="14.00">Moderation</text>
</g>
<!-- lambda_meta&#45;&gt;cloudwatch -->
<g id="edge35" class="edge">
<title>lambda_meta&#45;&gt;cloudwatch</title>
<path fill="none" stroke="#607d8b" stroke-dasharray="1,5" d="M1437.17,-484.01C1437.17,-449.56 1437.17,-379 1437.17,-379 1437.17,-379 1961.2,-379 1961.2,-379 1961.2,-379 1961.2,-341.82 1961.2,-341.82"/>
<polygon fill="#607d8b" stroke="#607d8b" points="1964.7,-341.82 1961.2,-331.82 1957.7,-341.82 1964.7,-341.82"/>
</g>
<!-- bedrock_claude -->
<g id="node19" class="node">
<title>bedrock_claude</title>
<path fill="#2196f3" stroke="black" d="M1507.25,-330C1507.25,-330 1432.75,-330 1432.75,-330 1426.75,-330 1420.75,-324 1420.75,-318 1420.75,-318 1420.75,-306 1420.75,-306 1420.75,-300 1426.75,-294 1432.75,-294 1432.75,-294 1507.25,-294 1507.25,-294 1513.25,-294 1519.25,-300 1519.25,-306 1519.25,-306 1519.25,-318 1519.25,-318 1519.25,-324 1513.25,-330 1507.25,-330"/>
<text xml:space="preserve" text-anchor="middle" x="1470" y="-315.05" font-family="Arial" font-size="11.00" fill="white">Amazon Bedrock</text>
<text xml:space="preserve" text-anchor="middle" x="1470" y="-301.55" font-family="Arial" font-size="11.00" fill="white">Claude 3</text>
</g>
<!-- lambda_creative&#45;&gt;bedrock_claude -->
<g id="edge21" class="edge">
<title>lambda_creative&#45;&gt;bedrock_claude</title>
<path fill="none" stroke="#2196f3" d="M1528.06,-503C1510.3,-503 1494.62,-503 1494.62,-503 1494.62,-503 1494.62,-341.83 1494.62,-341.83"/>
<polygon fill="#2196f3" stroke="#2196f3" points="1498.13,-341.83 1494.63,-331.83 1491.13,-341.83 1498.13,-341.83"/>
<text xml:space="preserve" text-anchor="middle" x="1610.62" y="-428.2" font-family="Times New Roman,serif" font-size="14.00">Creative</text>
<text xml:space="preserve" text-anchor="middle" x="1610.62" y="-411.7" font-family="Times New Roman,serif" font-size="14.00">Suggestions</text>
</g>
<!-- lambda_creative&#45;&gt;cloudwatch -->
<g id="edge36" class="edge">
<title>lambda_creative&#45;&gt;cloudwatch</title>
<path fill="none" stroke="#607d8b" stroke-dasharray="1,5" d="M1602.31,-484.2C1602.31,-451.63 1602.31,-387 1602.31,-387 1602.31,-387 1969.8,-387 1969.8,-387 1969.8,-387 1969.8,-341.67 1969.8,-341.67"/>
<polygon fill="#607d8b" stroke="#607d8b" points="1973.3,-341.67 1969.8,-331.67 1966.3,-341.67 1973.3,-341.67"/>
</g>
<!-- sagemaker -->
<g id="node20" class="node">
<title>sagemaker</title>
<path fill="#2196f3" stroke="black" d="M1689,-330C1689,-330 1589,-330 1589,-330 1583,-330 1577,-324 1577,-318 1577,-318 1577,-306 1577,-306 1577,-300 1583,-294 1589,-294 1589,-294 1689,-294 1689,-294 1695,-294 1701,-300 1701,-306 1701,-306 1701,-318 1701,-318 1701,-324 1695,-330 1689,-330"/>
<text xml:space="preserve" text-anchor="middle" x="1639" y="-315.05" font-family="Arial" font-size="11.00" fill="white">Amazon SageMaker</text>
<text xml:space="preserve" text-anchor="middle" x="1639" y="-301.55" font-family="Arial" font-size="11.00" fill="white">Engagement Predictor</text>
</g>
<!-- lambda_predict&#45;&gt;sagemaker -->
<g id="edge22" class="edge">
<title>lambda_predict&#45;&gt;sagemaker</title>
<path fill="none" stroke="#2196f3" d="M1693.56,-484.23C1693.56,-484.23 1693.56,-342 1693.56,-342"/>
<polygon fill="#2196f3" stroke="#2196f3" points="1697.06,-342 1693.56,-332 1690.06,-342 1697.06,-342"/>
<text xml:space="preserve" text-anchor="middle" x="1805.12" y="-428.2" font-family="Times New Roman,serif" font-size="14.00">Predict</text>
<text xml:space="preserve" text-anchor="middle" x="1805.12" y="-411.7" font-family="Times New Roman,serif" font-size="14.00">Engagement</text>
</g>
<!-- lambda_predict&#45;&gt;cloudwatch -->
<g id="edge37" class="edge">
<title>lambda_predict&#45;&gt;cloudwatch</title>
<path fill="none" stroke="#607d8b" stroke-dasharray="1,5" d="M1798.1,-484.26C1798.1,-453.59 1798.1,-395 1798.1,-395 1798.1,-395 1978.41,-395 1978.41,-395 1978.41,-395 1978.41,-341.93 1978.41,-341.93"/>
<polygon fill="#607d8b" stroke="#607d8b" points="1981.91,-341.93 1978.41,-331.93 1974.91,-341.93 1981.91,-341.93"/>
</g>
<!-- mediaconvert -->
<g id="node22" class="node">
<title>mediaconvert</title>
<path fill="#ff5722" stroke="black" d="M2195.88,-330C2195.88,-330 2128.12,-330 2128.12,-330 2122.12,-330 2116.12,-324 2116.12,-318 2116.12,-318 2116.12,-306 2116.12,-306 2116.12,-300 2122.12,-294 2128.12,-294 2128.12,-294 2195.88,-294 2195.88,-294 2201.88,-294 2207.88,-300 2207.88,-306 2207.88,-306 2207.88,-318 2207.88,-318 2207.88,-324 2201.88,-330 2195.88,-330"/>
<text xml:space="preserve" text-anchor="middle" x="2162" y="-315.05" font-family="Arial" font-size="11.00" fill="white">AWS Elemental</text>
<text xml:space="preserve" text-anchor="middle" x="2162" y="-301.55" font-family="Arial" font-size="11.00" fill="white">MediaConvert</text>
</g>
<!-- lambda_dist&#45;&gt;mediaconvert -->
<g id="edge24" class="edge">
<title>lambda_dist&#45;&gt;mediaconvert</title>
<path fill="none" stroke="#ff5722" d="M1995.96,-494C2064.29,-494 2162,-494 2162,-494 2162,-494 2162,-341.97 2162,-341.97"/>
<polygon fill="#ff5722" stroke="#ff5722" points="2165.5,-341.97 2162,-331.97 2158.5,-341.97 2165.5,-341.97"/>
<text xml:space="preserve" text-anchor="middle" x="2190.12" y="-419.95" font-family="Times New Roman,serif" font-size="14.00">Transcode</text>
</g>
<!-- transcribe -->
<g id="node23" class="node">
<title>transcribe</title>
<path fill="#ff5722" stroke="black" d="M2362.5,-330C2362.5,-330 2277.5,-330 2277.5,-330 2271.5,-330 2265.5,-324 2265.5,-318 2265.5,-318 2265.5,-306 2265.5,-306 2265.5,-300 2271.5,-294 2277.5,-294 2277.5,-294 2362.5,-294 2362.5,-294 2368.5,-294 2374.5,-300 2374.5,-306 2374.5,-306 2374.5,-318 2374.5,-318 2374.5,-324 2368.5,-330 2362.5,-330"/>
<text xml:space="preserve" text-anchor="middle" x="2320" y="-315.05" font-family="Arial" font-size="11.00" fill="white">Amazon Transcribe</text>
<text xml:space="preserve" text-anchor="middle" x="2320" y="-301.55" font-family="Arial" font-size="11.00" fill="white">Speech&#45;to&#45;Text</text>
</g>
<!-- lambda_dist&#45;&gt;transcribe -->
<g id="edge25" class="edge">
<title>lambda_dist&#45;&gt;transcribe</title>
<path fill="none" stroke="#ff5722" d="M1996.11,-503C2106.85,-503 2320,-503 2320,-503 2320,-503 2320,-341.83 2320,-341.83"/>
<polygon fill="#ff5722" stroke="#ff5722" points="2323.5,-341.83 2320,-331.83 2316.5,-341.83 2323.5,-341.83"/>
<text xml:space="preserve" text-anchor="middle" x="2370.38" y="-428.2" font-family="Times New Roman,serif" font-size="14.00">Generate</text>
<text xml:space="preserve" text-anchor="middle" x="2370.38" y="-411.7" font-family="Times New Roman,serif" font-size="14.00">Captions</text>
</g>
<!-- translate -->
<g id="node24" class="node">
<title>translate</title>
<path fill="#ff5722" stroke="black" d="M2523.5,-330C2523.5,-330 2444.5,-330 2444.5,-330 2438.5,-330 2432.5,-324 2432.5,-318 2432.5,-318 2432.5,-306 2432.5,-306 2432.5,-300 2438.5,-294 2444.5,-294 2444.5,-294 2523.5,-294 2523.5,-294 2529.5,-294 2535.5,-300 2535.5,-306 2535.5,-306 2535.5,-318 2535.5,-318 2535.5,-324 2529.5,-330 2523.5,-330"/>
<text xml:space="preserve" text-anchor="middle" x="2484" y="-315.05" font-family="Arial" font-size="11.00" fill="white">Amazon Translate</text>
<text xml:space="preserve" text-anchor="middle" x="2484" y="-301.55" font-family="Arial" font-size="11.00" fill="white">Multi&#45;lingual</text>
</g>
<!-- lambda_dist&#45;&gt;translate -->
<g id="edge26" class="edge">
<title>lambda_dist&#45;&gt;translate</title>
<path fill="none" stroke="#ff5722" d="M1996.06,-512C2142.24,-512 2484,-512 2484,-512 2484,-512 2484,-341.97 2484,-341.97"/>
<polygon fill="#ff5722" stroke="#ff5722" points="2487.5,-341.97 2484,-331.97 2480.5,-341.97 2487.5,-341.97"/>
<text xml:space="preserve" text-anchor="middle" x="2494.25" y="-419.95" font-family="Times New Roman,serif" font-size="14.00">Localize</text>
</g>
<!-- lambda_dist&#45;&gt;cloudwatch -->
<g id="edge38" class="edge">
<title>lambda_dist&#45;&gt;cloudwatch</title>
<path fill="none" stroke="#607d8b" stroke-dasharray="1,5" d="M1987.02,-484.23C1987.02,-484.23 1987.02,-342 1987.02,-342"/>
<polygon fill="#607d8b" stroke="#607d8b" points="1990.52,-342 1987.02,-332 1983.52,-342 1990.52,-342"/>
</g>
<!-- eventbridge -->
<g id="node28" class="node">
<title>eventbridge</title>
<path fill="#607d8b" stroke="black" d="M1865,-330C1865,-330 1771,-330 1771,-330 1765,-330 1759,-324 1759,-318 1759,-318 1759,-306 1759,-306 1759,-300 1765,-294 1771,-294 1771,-294 1865,-294 1865,-294 1871,-294 1877,-300 1877,-306 1877,-306 1877,-318 1877,-318 1877,-324 1871,-330 1865,-330"/>
<text xml:space="preserve" text-anchor="middle" x="1818" y="-315.05" font-family="Arial" font-size="11.00" fill="white">Amazon EventBridge</text>
<text xml:space="preserve" text-anchor="middle" x="1818" y="-301.55" font-family="Arial" font-size="11.00" fill="white">Event Bus</text>
</g>
<!-- s3_projects&#45;&gt;eventbridge -->
<g id="edge20" class="edge">
<title>s3_projects&#45;&gt;eventbridge</title>
<path fill="none" stroke="#9c27b0" stroke-dasharray="5,2" d="M1037.25,-330.34C1037.25,-334.64 1037.25,-338 1037.25,-338 1037.25,-338 1768.78,-338 1768.78,-338 1768.78,-338 1768.78,-337.23 1768.78,-337.23"/>
<polygon fill="#9c27b0" stroke="#9c27b0" points="1772.28,-341.85 1768.78,-331.85 1765.28,-341.85 1772.28,-341.85"/>
<text xml:space="preserve" text-anchor="middle" x="1155" y="-419.95" font-family="Times New Roman,serif" font-size="14.00">S3 Event</text>
</g>
<!-- s3_dist -->
<g id="node25" class="node">
<title>s3_dist</title>
<path fill="#ff5722" stroke="black" d="M2361,-207C2361,-207 2279,-207 2279,-207 2273,-207 2267,-201 2267,-195 2267,-195 2267,-183 2267,-183 2267,-177 2273,-171 2279,-171 2279,-171 2361,-171 2361,-171 2367,-171 2373,-177 2373,-183 2373,-183 2373,-195 2373,-195 2373,-201 2367,-207 2361,-207"/>
<text xml:space="preserve" text-anchor="middle" x="2320" y="-192.05" font-family="Arial" font-size="11.00" fill="white">Amazon S3</text>
<text xml:space="preserve" text-anchor="middle" x="2320" y="-178.55" font-family="Arial" font-size="11.00" fill="white">Distribution Bucket</text>
</g>
<!-- mediaconvert&#45;&gt;s3_dist -->
<g id="edge27" class="edge">
<title>mediaconvert&#45;&gt;s3_dist</title>
<path fill="none" stroke="#ff5722" d="M2162,-293.59C2162,-259.27 2162,-189 2162,-189 2162,-189 2254.99,-189 2254.99,-189"/>
<polygon fill="#ff5722" stroke="#ff5722" points="2254.99,-192.5 2264.99,-189 2254.99,-185.5 2254.99,-192.5"/>
</g>
<!-- transcribe&#45;&gt;s3_dist -->
<g id="edge28" class="edge">
<title>transcribe&#45;&gt;s3_dist</title>
<path fill="none" stroke="#ff5722" d="M2320,-293.59C2320,-293.59 2320,-218.65 2320,-218.65"/>
<polygon fill="#ff5722" stroke="#ff5722" points="2323.5,-218.65 2320,-208.65 2316.5,-218.65 2323.5,-218.65"/>
</g>
<!-- translate&#45;&gt;s3_dist -->
<g id="edge29" class="edge">
<title>translate&#45;&gt;s3_dist</title>
<path fill="none" stroke="#ff5722" d="M2484,-293.59C2484,-259.27 2484,-189 2484,-189 2484,-189 2384.76,-189 2384.76,-189"/>
<polygon fill="#ff5722" stroke="#ff5722" points="2384.76,-185.5 2374.76,-189 2384.76,-192.5 2384.76,-185.5"/>
</g>
<!-- cloudfront -->
<g id="node26" class="node">
<title>cloudfront</title>
<path fill="#ff5722" stroke="black" d="M2364.38,-52C2364.38,-52 2275.62,-52 2275.62,-52 2269.62,-52 2263.62,-46 2263.62,-40 2263.62,-40 2263.62,-28 2263.62,-28 2263.62,-22 2269.62,-16 2275.62,-16 2275.62,-16 2364.38,-16 2364.38,-16 2370.38,-16 2376.38,-22 2376.38,-28 2376.38,-28 2376.38,-40 2376.38,-40 2376.38,-46 2370.38,-52 2364.38,-52"/>
<text xml:space="preserve" text-anchor="middle" x="2320" y="-37.05" font-family="Arial" font-size="11.00" fill="white">Amazon CloudFront</text>
<text xml:space="preserve" text-anchor="middle" x="2320" y="-23.55" font-family="Arial" font-size="11.00" fill="white">CDN</text>
</g>
<!-- s3_dist&#45;&gt;cloudfront -->
<g id="edge30" class="edge">
<title>s3_dist&#45;&gt;cloudfront</title>
<path fill="none" stroke="#ff5722" stroke-width="2" d="M2320,-170.61C2320,-170.61 2320,-65.39 2320,-65.39"/>
<polygon fill="#ff5722" stroke="#ff5722" stroke-width="2" points="2323.5,-65.39 2320,-55.39 2316.5,-65.39 2323.5,-65.39"/>
<text xml:space="preserve" text-anchor="middle" x="2343.62" y="-114.7" font-family="Times New Roman,serif" font-size="14.00">CDN</text>
<text xml:space="preserve" text-anchor="middle" x="2343.62" y="-98.2" font-family="Times New Roman,serif" font-size="14.00">Delivery</text>
</g>
<!-- eventbridge&#45;&gt;lambda_embed -->
<g id="edge31" class="edge">
<title>eventbridge&#45;&gt;lambda_embed</title>
<path fill="none" stroke="#607d8b" stroke-dasharray="5,2" d="M1778.55,-330.19C1778.55,-338.28 1778.55,-346 1778.55,-346 1778.55,-346 1278.88,-346 1278.88,-346 1278.88,-346 1278.88,-472.73 1278.88,-472.73"/>
<polygon fill="#607d8b" stroke="#607d8b" points="1275.38,-472.73 1278.88,-482.73 1282.38,-472.73 1275.38,-472.73"/>
<text xml:space="preserve" text-anchor="middle" x="1390.25" y="-419.95" font-family="Times New Roman,serif" font-size="14.00">Trigger</text>
</g>
<!-- eventbridge&#45;&gt;lambda_meta -->
<g id="edge32" class="edge">
<title>eventbridge&#45;&gt;lambda_meta</title>
<path fill="none" stroke="#607d8b" stroke-dasharray="5,2" d="M1788.33,-330.06C1788.33,-341.44 1788.33,-354 1788.33,-354 1788.33,-354 1453.58,-354 1453.58,-354 1453.58,-354 1453.58,-472.78 1453.58,-472.78"/>
<polygon fill="#607d8b" stroke="#607d8b" points="1450.08,-472.78 1453.58,-482.78 1457.08,-472.78 1450.08,-472.78"/>
<text xml:space="preserve" text-anchor="middle" x="1494.25" y="-419.95" font-family="Times New Roman,serif" font-size="14.00">Trigger</text>
</g>
</g>
</svg>
